<?xml version="1.0" encoding="UTF-8"?>
<!DOCTYPE svg PUBLIC "-//W3C//DTD SVG 1.1//EN" "http://www.w3.org/Graphics/SVG/1.1/DTD/svg11.dtd">
<!-- Creator: CorelDRAW -->
<svg xmlns="http://www.w3.org/2000/svg" xml:space="preserve" width="2048px" height="2048px" style="shape-rendering:geometricPrecision; text-rendering:geometricPrecision; image-rendering:optimizeQuality; fill-rule:evenodd; clip-rule:evenodd"
viewBox="0 0 2048 2048"
 xmlns:xlink="http://www.w3.org/1999/xlink">
 <defs>
  <style type="text/css">
   <![CDATA[
    .fil2 {fill:none}
    .fil1 {fill:#424242}
    .fil0 {fill:#424242;fill-rule:nonzero}
   ]]>
  </style>
 </defs>
 <g id="Layer_x0020_1">
  <metadata id="CorelCorpID_0Corel-Layer"/>
  <path class="fil0" d="M260.455 931.984l33.9071 439.052c0.101575,4.16339 1.02165,8.37402 2.84764,12.4063l0.0507874 -0.022441c41.2099,90.8516 229.619,148.352 461.404,183.162 349.553,52.4977 804.975,58.2213 977.935,47.0327 4.10788,-0.265748 5.66339,-0.351969 7.03701,-0.427559 19.6937,-1.08898 28.8295,-1.59449 39.7536,-15.2303 9.26694,-11.5689 8.9256,-19.637 8.29134,-34.6784 -0.0980316,-2.34567 -0.220866,-5.23111 -0.220866,-12.5634l0 -268.684c-10.435,6.07205 -22.6725,9.2752 -35.5512,8.55946l-32.1414 -1.78583 0.00944883 -0.158268c-214.247,-12.9957 -428.652,-37.0488 -639.586,-76.7327 -155.668,-29.2855 -310.888,-67.2697 -461.098,-117.793 -91.9087,-30.9142 -183.773,-66.9544 -270.493,-110.53 -31.2154,-15.6839 -62.6493,-32.6233 -92.145,-51.6059z"/>
  <path class="fil1" d="M893.348 434.287l0 0zm894.165 777.002c-14.7165,-32.4036 -163.693,-327.48 -894.158,-777.014 -8.87717,-5.4626 -19.3748,-6.06851 -28.3949,-2.56063 -36.4996,10.9335 -429.557,134.198 -604.311,425.411l-0.0874016 -0.0519685c-8.95158,14.9185 -4.32756,34.2036 10.278,43.474 23.4095,16.1917 447.211,300.252 1486.85,358.015l-0.00472441 0.0767717c17.6457,0.980316 32.7461,-12.5303 33.7264,-30.176 0.344882,-6.20788 -1.10669,-12.1004 -3.89764,-17.1744zm-1094.62 -355.388c26.8288,-98.38 103.885,-155.586 194.039,-175.677 44.9847,-10.0264 93.0792,-10.7161 139.419,-2.57835 46.6111,8.18505 91.8568,25.2792 130.864,50.7674 77.9587,50.9398 130.947,134.478 121.747,246.714l0.0177165 0.113386c-1.44331,17.6138 -16.8933,30.7229 -34.5071,29.2796 -1.52953,-0.125197 -3.02362,-0.359055 -4.47756,-0.687402l-515.156 -88.2107c-34.2591,-5.87008 -42.0319,-11.3823 -36.515,-43.5851 0.659056,-3.84449 1.50473,-6.5067 2.59961,-9.96733 0.94252,-2.9752 1.87795,-5.82638 1.97008,-6.16772z"/>
  <path class="fil1" d="M1122.21 781.912c-31.5851,-20.6386 -68.5453,-34.5378 -106.864,-41.2666 -38.5866,-6.77599 -78.1524,-6.30827 -114.667,1.82953 -63.1808,14.0799 -117.662,51.4288 -141.154,114.246l455.857 78.0568c-5.12717,-67.9371 -42.1465,-119.524 -93.1725,-152.865z"/>
 </g>
 <rect class="fil2" width="2048" height="2048"/>
</svg>
